<mxfile host="app.diagrams.net" agent="Mozilla/5.0 (Windows NT 10.0; Win64; x64) AppleWebKit/537.36 (KHTML, like Gecko) Chrome/133.0.0.0 Safari/537.36 Edg/133.0.0.0" version="26.0.16">
  <diagram id="C5RBs43oDa-KdzZeNtuy" name="Page-1">
    <mxGraphModel dx="1869" dy="565" grid="1" gridSize="10" guides="1" tooltips="1" connect="1" arrows="1" fold="1" page="1" pageScale="1" pageWidth="827" pageHeight="1169" math="0" shadow="0">
      <root>
        <mxCell id="WIyWlLk6GJQsqaUBKTNV-0" />
        <mxCell id="WIyWlLk6GJQsqaUBKTNV-1" parent="WIyWlLk6GJQsqaUBKTNV-0" />
        <mxCell id="WJ1jjtZrP0LSbncoqHmh-13" style="edgeStyle=orthogonalEdgeStyle;rounded=0;orthogonalLoop=1;jettySize=auto;html=1;" edge="1" parent="WIyWlLk6GJQsqaUBKTNV-1" source="WJ1jjtZrP0LSbncoqHmh-1" target="WJ1jjtZrP0LSbncoqHmh-11">
          <mxGeometry relative="1" as="geometry" />
        </mxCell>
        <mxCell id="WJ1jjtZrP0LSbncoqHmh-1" value="Start" style="strokeWidth=2;html=1;shape=mxgraph.flowchart.start_2;whiteSpace=wrap;" vertex="1" parent="WIyWlLk6GJQsqaUBKTNV-1">
          <mxGeometry x="208" y="30" width="74" height="74" as="geometry" />
        </mxCell>
        <mxCell id="WJ1jjtZrP0LSbncoqHmh-8" style="edgeStyle=orthogonalEdgeStyle;rounded=0;orthogonalLoop=1;jettySize=auto;html=1;" edge="1" parent="WIyWlLk6GJQsqaUBKTNV-1" source="WJ1jjtZrP0LSbncoqHmh-5" target="WJ1jjtZrP0LSbncoqHmh-7">
          <mxGeometry relative="1" as="geometry" />
        </mxCell>
        <mxCell id="WJ1jjtZrP0LSbncoqHmh-16" value="YES" style="edgeLabel;html=1;align=center;verticalAlign=middle;resizable=0;points=[];" vertex="1" connectable="0" parent="WJ1jjtZrP0LSbncoqHmh-8">
          <mxGeometry x="-0.0762" y="4" relative="1" as="geometry">
            <mxPoint y="-19" as="offset" />
          </mxGeometry>
        </mxCell>
        <mxCell id="WJ1jjtZrP0LSbncoqHmh-19" style="edgeStyle=orthogonalEdgeStyle;rounded=0;orthogonalLoop=1;jettySize=auto;html=1;" edge="1" parent="WIyWlLk6GJQsqaUBKTNV-1" source="WJ1jjtZrP0LSbncoqHmh-5" target="WJ1jjtZrP0LSbncoqHmh-18">
          <mxGeometry relative="1" as="geometry" />
        </mxCell>
        <mxCell id="WJ1jjtZrP0LSbncoqHmh-21" value="NO" style="edgeLabel;html=1;align=center;verticalAlign=middle;resizable=0;points=[];" vertex="1" connectable="0" parent="WJ1jjtZrP0LSbncoqHmh-19">
          <mxGeometry x="-0.1867" relative="1" as="geometry">
            <mxPoint x="-20" as="offset" />
          </mxGeometry>
        </mxCell>
        <mxCell id="WJ1jjtZrP0LSbncoqHmh-5" value="Is Number Divisible by&amp;nbsp;&lt;div&gt;3 and 5?&lt;/div&gt;" style="strokeWidth=2;html=1;shape=mxgraph.flowchart.decision;whiteSpace=wrap;" vertex="1" parent="WIyWlLk6GJQsqaUBKTNV-1">
          <mxGeometry x="364" y="220" width="100" height="100" as="geometry" />
        </mxCell>
        <mxCell id="WJ1jjtZrP0LSbncoqHmh-34" style="edgeStyle=orthogonalEdgeStyle;rounded=0;orthogonalLoop=1;jettySize=auto;html=1;" edge="1" parent="WIyWlLk6GJQsqaUBKTNV-1" source="WJ1jjtZrP0LSbncoqHmh-7" target="WJ1jjtZrP0LSbncoqHmh-33">
          <mxGeometry relative="1" as="geometry" />
        </mxCell>
        <mxCell id="WJ1jjtZrP0LSbncoqHmh-7" value="Display&lt;br&gt;&lt;div&gt;&amp;nbsp;&quot;Fizzbuzz&quot; instead of number&lt;/div&gt;" style="rounded=1;whiteSpace=wrap;html=1;absoluteArcSize=1;arcSize=14;strokeWidth=2;" vertex="1" parent="WIyWlLk6GJQsqaUBKTNV-1">
          <mxGeometry x="190" y="242.5" width="110" height="55" as="geometry" />
        </mxCell>
        <mxCell id="WJ1jjtZrP0LSbncoqHmh-14" style="edgeStyle=orthogonalEdgeStyle;rounded=0;orthogonalLoop=1;jettySize=auto;html=1;" edge="1" parent="WIyWlLk6GJQsqaUBKTNV-1" source="WJ1jjtZrP0LSbncoqHmh-11" target="WJ1jjtZrP0LSbncoqHmh-5">
          <mxGeometry relative="1" as="geometry" />
        </mxCell>
        <mxCell id="WJ1jjtZrP0LSbncoqHmh-11" value="For Number in Range of 1 to 26" style="rounded=1;whiteSpace=wrap;html=1;absoluteArcSize=1;arcSize=14;strokeWidth=2;" vertex="1" parent="WIyWlLk6GJQsqaUBKTNV-1">
          <mxGeometry x="364" y="120" width="100" height="50" as="geometry" />
        </mxCell>
        <mxCell id="WJ1jjtZrP0LSbncoqHmh-22" style="edgeStyle=orthogonalEdgeStyle;rounded=0;orthogonalLoop=1;jettySize=auto;html=1;" edge="1" parent="WIyWlLk6GJQsqaUBKTNV-1" source="WJ1jjtZrP0LSbncoqHmh-18" target="WJ1jjtZrP0LSbncoqHmh-20">
          <mxGeometry relative="1" as="geometry" />
        </mxCell>
        <mxCell id="WJ1jjtZrP0LSbncoqHmh-23" value="YES" style="edgeLabel;html=1;align=center;verticalAlign=middle;resizable=0;points=[];" vertex="1" connectable="0" parent="WJ1jjtZrP0LSbncoqHmh-22">
          <mxGeometry x="-0.1152" y="2" relative="1" as="geometry">
            <mxPoint y="-14" as="offset" />
          </mxGeometry>
        </mxCell>
        <mxCell id="WJ1jjtZrP0LSbncoqHmh-26" style="edgeStyle=orthogonalEdgeStyle;rounded=0;orthogonalLoop=1;jettySize=auto;html=1;" edge="1" parent="WIyWlLk6GJQsqaUBKTNV-1" source="WJ1jjtZrP0LSbncoqHmh-18" target="WJ1jjtZrP0LSbncoqHmh-25">
          <mxGeometry relative="1" as="geometry" />
        </mxCell>
        <mxCell id="WJ1jjtZrP0LSbncoqHmh-27" value="NO" style="edgeLabel;html=1;align=center;verticalAlign=middle;resizable=0;points=[];" vertex="1" connectable="0" parent="WJ1jjtZrP0LSbncoqHmh-26">
          <mxGeometry x="-0.1709" y="-1" relative="1" as="geometry">
            <mxPoint x="-23" as="offset" />
          </mxGeometry>
        </mxCell>
        <mxCell id="WJ1jjtZrP0LSbncoqHmh-18" value="Is Number Divisible by&amp;nbsp;&lt;div&gt;3?&lt;/div&gt;" style="strokeWidth=2;html=1;shape=mxgraph.flowchart.decision;whiteSpace=wrap;" vertex="1" parent="WIyWlLk6GJQsqaUBKTNV-1">
          <mxGeometry x="364" y="380" width="100" height="100" as="geometry" />
        </mxCell>
        <mxCell id="WJ1jjtZrP0LSbncoqHmh-36" style="edgeStyle=orthogonalEdgeStyle;rounded=0;orthogonalLoop=1;jettySize=auto;html=1;" edge="1" parent="WIyWlLk6GJQsqaUBKTNV-1" source="WJ1jjtZrP0LSbncoqHmh-20" target="WJ1jjtZrP0LSbncoqHmh-33">
          <mxGeometry relative="1" as="geometry">
            <Array as="points">
              <mxPoint x="140" y="430" />
              <mxPoint x="140" y="145" />
            </Array>
          </mxGeometry>
        </mxCell>
        <mxCell id="WJ1jjtZrP0LSbncoqHmh-20" value="Display&amp;nbsp;&lt;div&gt;&quot;Fizz&quot; instead of Number&lt;/div&gt;" style="rounded=1;whiteSpace=wrap;html=1;absoluteArcSize=1;arcSize=14;strokeWidth=2;" vertex="1" parent="WIyWlLk6GJQsqaUBKTNV-1">
          <mxGeometry x="190" y="402.5" width="110" height="55" as="geometry" />
        </mxCell>
        <mxCell id="WJ1jjtZrP0LSbncoqHmh-30" style="edgeStyle=orthogonalEdgeStyle;rounded=0;orthogonalLoop=1;jettySize=auto;html=1;" edge="1" parent="WIyWlLk6GJQsqaUBKTNV-1" source="WJ1jjtZrP0LSbncoqHmh-25" target="WJ1jjtZrP0LSbncoqHmh-29">
          <mxGeometry relative="1" as="geometry" />
        </mxCell>
        <mxCell id="WJ1jjtZrP0LSbncoqHmh-31" value="YES" style="edgeLabel;html=1;align=center;verticalAlign=middle;resizable=0;points=[];" vertex="1" connectable="0" parent="WJ1jjtZrP0LSbncoqHmh-30">
          <mxGeometry x="-0.169" relative="1" as="geometry">
            <mxPoint y="-14" as="offset" />
          </mxGeometry>
        </mxCell>
        <mxCell id="WJ1jjtZrP0LSbncoqHmh-40" style="edgeStyle=orthogonalEdgeStyle;rounded=0;orthogonalLoop=1;jettySize=auto;html=1;" edge="1" parent="WIyWlLk6GJQsqaUBKTNV-1" source="WJ1jjtZrP0LSbncoqHmh-25" target="WJ1jjtZrP0LSbncoqHmh-39">
          <mxGeometry relative="1" as="geometry" />
        </mxCell>
        <mxCell id="WJ1jjtZrP0LSbncoqHmh-41" value="NO" style="edgeLabel;html=1;align=center;verticalAlign=middle;resizable=0;points=[];" vertex="1" connectable="0" parent="WJ1jjtZrP0LSbncoqHmh-40">
          <mxGeometry x="-0.2518" y="1" relative="1" as="geometry">
            <mxPoint x="-22" as="offset" />
          </mxGeometry>
        </mxCell>
        <mxCell id="WJ1jjtZrP0LSbncoqHmh-25" value="Is Number Divisible by&amp;nbsp;&lt;div&gt;5?&lt;/div&gt;" style="strokeWidth=2;html=1;shape=mxgraph.flowchart.decision;whiteSpace=wrap;" vertex="1" parent="WIyWlLk6GJQsqaUBKTNV-1">
          <mxGeometry x="364" y="535" width="100" height="100" as="geometry" />
        </mxCell>
        <mxCell id="WJ1jjtZrP0LSbncoqHmh-37" style="edgeStyle=orthogonalEdgeStyle;rounded=0;orthogonalLoop=1;jettySize=auto;html=1;" edge="1" parent="WIyWlLk6GJQsqaUBKTNV-1" source="WJ1jjtZrP0LSbncoqHmh-29" target="WJ1jjtZrP0LSbncoqHmh-33">
          <mxGeometry relative="1" as="geometry">
            <Array as="points">
              <mxPoint x="90" y="585" />
              <mxPoint x="90" y="145" />
            </Array>
          </mxGeometry>
        </mxCell>
        <mxCell id="WJ1jjtZrP0LSbncoqHmh-29" value="Display&amp;nbsp;&lt;div&gt;&quot;Buzz&quot; instead of Number&lt;/div&gt;" style="rounded=1;whiteSpace=wrap;html=1;absoluteArcSize=1;arcSize=14;strokeWidth=2;" vertex="1" parent="WIyWlLk6GJQsqaUBKTNV-1">
          <mxGeometry x="190" y="557" width="110" height="55" as="geometry" />
        </mxCell>
        <mxCell id="WJ1jjtZrP0LSbncoqHmh-35" style="edgeStyle=orthogonalEdgeStyle;rounded=0;orthogonalLoop=1;jettySize=auto;html=1;" edge="1" parent="WIyWlLk6GJQsqaUBKTNV-1" source="WJ1jjtZrP0LSbncoqHmh-33" target="WJ1jjtZrP0LSbncoqHmh-11">
          <mxGeometry relative="1" as="geometry" />
        </mxCell>
        <mxCell id="WJ1jjtZrP0LSbncoqHmh-33" value="" style="shape=waypoint;sketch=0;fillStyle=solid;size=6;pointerEvents=1;points=[];fillColor=none;resizable=0;rotatable=0;perimeter=centerPerimeter;snapToPoint=1;" vertex="1" parent="WIyWlLk6GJQsqaUBKTNV-1">
          <mxGeometry x="235" y="135" width="20" height="20" as="geometry" />
        </mxCell>
        <mxCell id="WJ1jjtZrP0LSbncoqHmh-42" style="edgeStyle=orthogonalEdgeStyle;rounded=0;orthogonalLoop=1;jettySize=auto;html=1;" edge="1" parent="WIyWlLk6GJQsqaUBKTNV-1" source="WJ1jjtZrP0LSbncoqHmh-39" target="WJ1jjtZrP0LSbncoqHmh-11">
          <mxGeometry relative="1" as="geometry">
            <Array as="points">
              <mxPoint x="560" y="748" />
              <mxPoint x="560" y="145" />
            </Array>
          </mxGeometry>
        </mxCell>
        <mxCell id="WJ1jjtZrP0LSbncoqHmh-46" style="edgeStyle=orthogonalEdgeStyle;rounded=0;orthogonalLoop=1;jettySize=auto;html=1;" edge="1" parent="WIyWlLk6GJQsqaUBKTNV-1" source="WJ1jjtZrP0LSbncoqHmh-39" target="WJ1jjtZrP0LSbncoqHmh-43">
          <mxGeometry relative="1" as="geometry" />
        </mxCell>
        <mxCell id="WJ1jjtZrP0LSbncoqHmh-48" value="All Iterations Completed" style="edgeLabel;html=1;align=center;verticalAlign=middle;resizable=0;points=[];" vertex="1" connectable="0" parent="WJ1jjtZrP0LSbncoqHmh-46">
          <mxGeometry x="-0.2939" y="2" relative="1" as="geometry">
            <mxPoint x="74" y="14" as="offset" />
          </mxGeometry>
        </mxCell>
        <mxCell id="WJ1jjtZrP0LSbncoqHmh-39" value="Display&amp;nbsp;&lt;div&gt;&lt;span style=&quot;background-color: transparent; color: light-dark(rgb(0, 0, 0), rgb(255, 255, 255));&quot;&gt;Number&lt;/span&gt;&lt;/div&gt;" style="rounded=1;whiteSpace=wrap;html=1;absoluteArcSize=1;arcSize=14;strokeWidth=2;" vertex="1" parent="WIyWlLk6GJQsqaUBKTNV-1">
          <mxGeometry x="359" y="720" width="110" height="55" as="geometry" />
        </mxCell>
        <mxCell id="WJ1jjtZrP0LSbncoqHmh-43" value="End" style="strokeWidth=2;html=1;shape=mxgraph.flowchart.terminator;whiteSpace=wrap;" vertex="1" parent="WIyWlLk6GJQsqaUBKTNV-1">
          <mxGeometry x="364" y="890" width="100" height="60" as="geometry" />
        </mxCell>
        <mxCell id="WJ1jjtZrP0LSbncoqHmh-47" value="Resulting Display&amp;nbsp;&lt;div&gt;&lt;div&gt;1,&amp;nbsp;&lt;span style=&quot;background-color: transparent; color: light-dark(rgb(0, 0, 0), rgb(255, 255, 255));&quot;&gt;2,&amp;nbsp;&lt;/span&gt;&lt;span style=&quot;background-color: transparent; color: light-dark(rgb(0, 0, 0), rgb(255, 255, 255));&quot;&gt;Fizz,&amp;nbsp;&lt;/span&gt;&lt;span style=&quot;background-color: transparent; color: light-dark(rgb(0, 0, 0), rgb(255, 255, 255));&quot;&gt;4,&amp;nbsp;&lt;/span&gt;&lt;span style=&quot;background-color: transparent; color: light-dark(rgb(0, 0, 0), rgb(255, 255, 255));&quot;&gt;Buzz,&amp;nbsp;&lt;/span&gt;&lt;span style=&quot;background-color: transparent; color: light-dark(rgb(0, 0, 0), rgb(255, 255, 255));&quot;&gt;Fizz,&amp;nbsp;&lt;/span&gt;&lt;span style=&quot;background-color: transparent; color: light-dark(rgb(0, 0, 0), rgb(255, 255, 255));&quot;&gt;7,&amp;nbsp;&lt;/span&gt;&lt;span style=&quot;background-color: transparent; color: light-dark(rgb(0, 0, 0), rgb(255, 255, 255));&quot;&gt;8,&amp;nbsp;&lt;/span&gt;&lt;span style=&quot;background-color: transparent; color: light-dark(rgb(0, 0, 0), rgb(255, 255, 255));&quot;&gt;Fizz,&amp;nbsp;&lt;/span&gt;&lt;span style=&quot;background-color: transparent; color: light-dark(rgb(0, 0, 0), rgb(255, 255, 255));&quot;&gt;Buzz,&amp;nbsp;&lt;/span&gt;&lt;span style=&quot;background-color: transparent;&quot;&gt;11,&amp;nbsp;&lt;/span&gt;&lt;span style=&quot;background-color: transparent; color: light-dark(rgb(0, 0, 0), rgb(255, 255, 255));&quot;&gt;Fizz,&amp;nbsp;&lt;/span&gt;&lt;span style=&quot;background-color: transparent; color: light-dark(rgb(0, 0, 0), rgb(255, 255, 255));&quot;&gt;13 ,&lt;/span&gt;&lt;span style=&quot;background-color: transparent; color: light-dark(rgb(0, 0, 0), rgb(255, 255, 255));&quot;&gt;14.&lt;/span&gt;&lt;/div&gt;&lt;div&gt;FizzBuzz,&amp;nbsp;&lt;span style=&quot;background-color: transparent;&quot;&gt;16,&amp;nbsp;&lt;/span&gt;&lt;span style=&quot;background-color: transparent; color: light-dark(rgb(0, 0, 0), rgb(255, 255, 255));&quot;&gt;17,&amp;nbsp;&lt;/span&gt;&lt;span style=&quot;background-color: transparent; color: light-dark(rgb(0, 0, 0), rgb(255, 255, 255));&quot;&gt;Fizz,&amp;nbsp;&lt;/span&gt;&lt;span style=&quot;background-color: transparent; color: light-dark(rgb(0, 0, 0), rgb(255, 255, 255));&quot;&gt;19,&amp;nbsp;&lt;/span&gt;&lt;span style=&quot;background-color: transparent; color: light-dark(rgb(0, 0, 0), rgb(255, 255, 255));&quot;&gt;Buzz,&amp;nbsp;&lt;/span&gt;&lt;span style=&quot;background-color: transparent; color: light-dark(rgb(0, 0, 0), rgb(255, 255, 255));&quot;&gt;Fizz,&amp;nbsp;&lt;/span&gt;&lt;span style=&quot;background-color: transparent; color: light-dark(rgb(0, 0, 0), rgb(255, 255, 255));&quot;&gt;22,&amp;nbsp;&lt;/span&gt;&lt;span style=&quot;background-color: transparent; color: light-dark(rgb(0, 0, 0), rgb(255, 255, 255));&quot;&gt;23,&amp;nbsp;&lt;/span&gt;&lt;span style=&quot;background-color: transparent; color: light-dark(rgb(0, 0, 0), rgb(255, 255, 255));&quot;&gt;Fizz,&amp;nbsp;&lt;/span&gt;&lt;span style=&quot;background-color: transparent; color: light-dark(rgb(0, 0, 0), rgb(255, 255, 255));&quot;&gt;Buzz&lt;/span&gt;&lt;span style=&quot;background-color: transparent; color: light-dark(rgb(0, 0, 0), rgb(255, 255, 255));&quot;&gt;&amp;nbsp;&lt;/span&gt;&lt;/div&gt;&lt;/div&gt;" style="strokeWidth=2;html=1;shape=mxgraph.flowchart.document2;whiteSpace=wrap;size=0.25;" vertex="1" parent="WIyWlLk6GJQsqaUBKTNV-1">
          <mxGeometry x="-80" y="770" width="335" height="120" as="geometry" />
        </mxCell>
      </root>
    </mxGraphModel>
  </diagram>
</mxfile>
